<?xml version="1.0" encoding="iso-8859-1"?>
<!-- Generator: Adobe Illustrator 17.1.0, SVG Export Plug-In . SVG Version: 6.00 Build 0)  -->
<!DOCTYPE svg PUBLIC "-//W3C//DTD SVG 1.1//EN" "http://www.w3.org/Graphics/SVG/1.1/DTD/svg11.dtd">
<svg version="1.1" id="Capa_1" xmlns="http://www.w3.org/2000/svg" xmlns:xlink="http://www.w3.org/1999/xlink" x="0px" y="0px"
	 viewBox="0 0 512 512" style="enable-background:new 0 0 512 512;" xml:space="preserve">
<g>
	<path d="M407.989,224.762V160h0.695c16.969,0,31.305-14.654,31.305-32s-14.336-32-31.305-32h-35.247
		c-4.551-9.803-14.851-16-28.09-16h-41.358V44.323C303.989,19.055,283.506,0,256.344,0h-0.176c-27.467,0-48.18,19.055-48.18,44.323
		V80h-40.923c-0.851,0-1.691-0.004-2.518-0.009c-0.829-0.005-1.645-0.009-2.445-0.009c-5.898,0-11.598,0.199-16.479,2.604
		c-3.794,1.868-8.209,5.689-9.348,13.415h-32.959c-16.969,0-31.304,14.654-31.304,32s14.335,32,31.304,32h0.673v64.763
		c-14.464,2.79-24,13.036-24,26.803v60.432c0,13.235,10.767,24.002,24.002,24.002h15.996c13.235,0,24.002-10.767,24.002-24.002
		v-60.432c0-13.831-9.54-24.107-24-26.839V160h16.741c2.898,14.008,14.068,26.326,27.811,29.629l4.531,1.187l13.478,45.487
		c-13.032,6.602-21.991,20.119-21.991,35.697c0,16.146,9.623,30.078,23.43,36.39v20.986c-9.311,3.302-16,12.195-16,22.624
		s6.689,19.322,16,22.624V392c0,0.06,0.008,0.118,0.009,0.177c-23.09,1.849-40.009,18.522-40.009,40.233V496c-4.418,0-8,3.582-8,8
		s3.582,8,8,8h96c4.418,0,8-3.582,8-8s-3.582-8-8-8v-63.59c0-22.155-16.595-38.552-40.008-40.254
		c0.001-0.052,0.008-0.103,0.008-0.156v-17.376c9.311-3.302,16-12.195,16-22.624s-6.689-19.322-16-22.624v-17.391
		c0.193,0.003,0.383,0.015,0.577,0.015h31.423c4.418,0,8-3.582,8-8h32c0,4.418,3.582,8,8,8h31.797c0.068,0,0.135-0.005,0.203-0.005
		v17.381c-9.311,3.302-16,12.195-16,22.624s6.689,19.322,16,22.624V392c0,0.06,0.008,0.118,0.009,0.177
		c-23.09,1.849-40.009,18.522-40.009,40.233V496c-4.418,0-8,3.582-8,8s3.582,8,8,8h96c4.418,0,8-3.582,8-8s-3.582-8-8-8v-63.59
		c0-22.155-16.595-38.552-40.008-40.254c0.001-0.052,0.008-0.103,0.008-0.156v-17.376c9.311-3.302,16-12.195,16-22.624
		s-6.689-19.322-16-22.624V308.56c14.008-6.23,23.805-20.268,23.805-36.56c0-15.708-9.107-29.324-22.316-35.864l13.404-45.238
		l4.749-1.25c13.653-3.294,24.748-15.621,27.624-29.647h16.734v64.729c-14.442,2.736-23.977,13.01-23.977,26.837v43.979
		c-0.009,0.151-0.023,0.301-0.023,0.454s0.014,0.303,0.023,0.454v15.544c0,13.235,10.767,24.002,24.002,24.002h15.996
		c13.235,0,24.002-10.767,24.002-24.002v-60.432C432.011,237.796,422.471,227.548,407.989,224.762z M119.987,320H103.99
		c-4.412,0-8.002-3.59-8.002-8.002V304h32v7.998C127.989,316.41,124.399,320,119.987,320z M127.989,251.566V288h-32v-36.434
		c0-8.523,8.7-11.558,16.132-11.566C114.77,240.003,127.989,240.575,127.989,251.566z M159.989,496v-16h64v16H159.989z
		 M223.989,432.41V464h-64v-31.59c0-11.757,8.858-24.41,28.306-24.41h7.63C215.206,408,223.989,420.653,223.989,432.41z
		 M191.989,360c-4.411,0-8-3.589-8-8s3.589-8,8-8s8,3.589,8,8S196.4,360,191.989,360z M287.989,496v-16h64v16H287.989z
		 M351.989,432.41V464h-64v-31.59c0-11.757,8.858-24.41,28.306-24.41h7.63C343.206,408,351.989,420.653,351.989,432.41z
		 M319.989,360c-4.411,0-8-3.589-8-8s3.589-8,8-8s8,3.589,8,8S324.4,360,319.989,360z M423.989,128c0,8.673-7.009,16-15.305,16
		h-32.695v-32h32.695C416.98,112,423.989,119.327,423.989,128z M223.989,44.323c0-16.411,13.534-28.323,32.18-28.323h0.176
		c18.336,0,31.645,11.912,31.645,28.323V80h-64V44.323z M88.011,128c0-8.673,7.008-16,15.304-16h32.673v32h-32.673
		C95.02,144,88.011,136.673,88.011,128z M200.565,296c-13.237,0-24.007-10.767-24.007-24s10.77-24,24.007-24h23.423v48H200.565z
		 M239.989,288v-32h32v32H239.989z M311.786,296h-23.797v-48h23.797c13.238,0,24.007,10.767,24.007,24S325.024,296,311.786,296z
		 M313.996,232.064c-0.732-0.04-1.468-0.064-2.21-0.064h-31.797c-4.418,0-8,3.582-8,8h-32c0-4.418-3.582-8-8-8h-31.423
		c-0.866,0-1.723,0.037-2.576,0.092l-10.826-36.538l44.592,11.677c0.061,0.016,0.122,0.031,0.183,0.045
		c6.58,1.559,15.223,2.417,24.338,2.417c9.163,0,17.852-0.866,24.464-2.439c0.062-0.015,0.124-0.03,0.186-0.046l43.857-11.546
		L313.996,232.064z M359.989,152.938c0,9.391-7.4,19.084-16.16,21.167c-0.062,0.015-0.124,0.03-0.186,0.046l-66.695,17.558
		c-5.352,1.261-12.878,1.984-20.673,1.984c-7.752,0-15.239-0.716-20.562-1.966l-67.202-17.599c-0.061-0.016-0.122-0.031-0.183-0.045
		c-8.857-2.099-16.34-11.782-16.34-21.146v-52.97c0-2.232,0.446-2.87,0.45-2.875c0.496-0.507,2.575-1.112,9.664-1.112
		c0.772,0,1.56,0.004,2.359,0.009c0.855,0.005,1.724,0.009,2.604,0.009h178.282c4.402,0,14.642,1.166,14.642,11.968V152.938z
		 M399.861,240c7.451,0.009,16.151,3.043,16.151,11.566V288h-32v-36.434C384.011,240.575,397.23,240.003,399.861,240z M408.01,320
		h-15.996c-4.412,0-8.002-3.59-8.002-8.002V304h32v7.998C416.011,316.41,412.422,320,408.01,320z"/>
	<path d="M285.009,128.259c-4.281,1.094-6.864,5.451-5.771,9.731c0.498,1.949,0.75,3.969,0.75,6.005
		c0,13.313-10.831,24.144-24.144,24.144s-24.144-10.831-24.144-24.144s10.831-24.144,24.144-24.144c2.078,0,4.138,0.263,6.123,0.781
		c4.273,1.12,8.646-1.444,9.761-5.719c1.117-4.275-1.444-8.645-5.719-9.761c-3.303-0.863-6.723-1.3-10.165-1.3
		c-22.136,0-40.144,18.008-40.144,40.144c0,22.136,18.008,40.144,40.144,40.144c22.135,0,40.144-18.008,40.144-40.144
		c0-3.37-0.42-6.723-1.249-9.966C293.646,129.749,289.288,127.163,285.009,128.259z"/>
	<path d="M271.989,40h-32c-4.418,0-8,3.582-8,8s3.582,8,8,8h32c4.418,0,8-3.582,8-8S276.407,40,271.989,40z"/>
</g>
<g>
</g>
<g>
</g>
<g>
</g>
<g>
</g>
<g>
</g>
<g>
</g>
<g>
</g>
<g>
</g>
<g>
</g>
<g>
</g>
<g>
</g>
<g>
</g>
<g>
</g>
<g>
</g>
<g>
</g>
</svg>
